<?xml version="1.0" encoding="utf-8"?>
<!-- Generator: Adobe Illustrator 22.1.0, SVG Export Plug-In . SVG Version: 6.00 Build 0)  -->
<svg version="1.1" id="Layer_1" xmlns="http://www.w3.org/2000/svg" xmlns:xlink="http://www.w3.org/1999/xlink" x="0px" y="0px"
	 viewBox="0 0 61.7 19.3" style="enable-background:new 0 0 61.7 19.3;" xml:space="preserve">
<style type="text/css">
	.st0{fill:#FFFFFF;}
</style>
<polygon class="st0" points="27.3,17.9 24.7,14.1 22.1,17.9 18.8,17.9 22.8,12.1 19,6.6 22.3,6.6 24.7,10.1 27,6.6 30.3,6.6 
	26.5,12.1 30.6,17.9 "/>
<path class="st0" d="M29.1,12.3c0-3.3,2.4-5.9,5.9-5.9c3.4,0,5.7,2.5,5.7,6.2v0.7h-8.4c0.2,1.4,1.3,2.6,3.3,2.6c1,0,2.3-0.4,3-1.1
	l1.3,1.9c-1.1,1-2.9,1.6-4.7,1.6C31.7,18.2,29.1,15.9,29.1,12.3 M35,8.7c-1.8,0-2.6,1.4-2.8,2.5h5.6C37.7,10.1,36.9,8.7,35,8.7"/>
<path class="st0" d="M40.4,16.5l1.3-2.1c0.8,0.8,2.5,1.5,3.9,1.5c1.3,0,1.9-0.5,1.9-1.2c0-1.9-6.7-0.3-6.7-4.8
	c0-1.9,1.7-3.6,4.6-3.6c1.9,0,3.4,0.7,4.6,1.5l-1.2,2c-0.7-0.7-2-1.3-3.3-1.3c-1.1,0-1.8,0.5-1.8,1.1c0,1.7,6.7,0.3,6.7,4.8
	c0,2.1-1.8,3.6-4.9,3.6C43.5,18.2,41.6,17.6,40.4,16.5"/>
<path class="st0" d="M52.9,17.9C52.9,17.9,52.9,17.9,52.9,17.9c-1.3-0.5-2.4-1.7-2.4-3.5c0-2.6,2.1-3.7,3.9-3.7
	c1.5,0,2.8,0.5,3.6,1.4v-1.5c0-1.1-1-1.9-2.5-1.9c-1.2,0-2.3,0.4-3.3,1.3l-1.1-2c1.4-1.2,3.2-1.8,4.9-1.8c2.6,0,4.9,1,4.9,4.3v7.3
	L52.9,17.9z M58.1,15.2v-1.4c-0.5-0.7-1.4-1-2.4-1c-1.2,0-2.1,0.6-2.1,1.7c0,1.1,1,1.7,2.1,1.7C56.6,16.2,57.6,15.9,58.1,15.2"/>
<path class="st0" d="M12.2,13.1c-1.2,0-2.1,0.6-2.1,1.7c0,1.1,1,1.7,2.1,1.7c1,0,1.9-0.3,2.4-1v-1.4C14.1,13.4,13.2,13.1,12.2,13.1"
	/>
<path class="st0" d="M18.7,9.7C18.5,5,14.6,1.3,9.8,1.3c0,0,0,0,0,0c-4.9,0-8.9,4-8.9,8.9c0,3.3,1.8,6.2,4.5,7.8
	C5.5,18,5.6,18,5.6,18c1.1,0.6,2.4,1,3.7,1l9.3,0h0L18.7,9.7L18.7,9.7z M17.6,18.2l-8.1,0c0,0-0.1,0-0.1,0c-1.3-0.5-2.3-1.6-2.3-3.4
	c0-2.6,2.1-3.7,3.9-3.7c1.5,0,2.8,0.5,3.6,1.4V11c0-1.1-1-1.9-2.5-1.9c-1.2,0-2.3,0.4-3.3,1.3l-1.1-2c1.4-1.2,3.2-1.8,4.9-1.8
	c2.6,0,4.9,1,4.9,4.3V18.2z"/>
<path class="st0" d="M18.8,2.3c0-1.2,0.9-2,2.1-2c0.9,0,1.4,0.5,1.6,1l-0.7,0.4C21.6,1.2,21.3,1,20.8,1c-0.7,0-1.2,0.5-1.2,1.3
	c0,0.7,0.5,1.3,1.2,1.3c0.4,0,0.8-0.2,0.9-0.6l0.7,0.3c-0.3,0.5-0.8,1-1.6,1C19.7,4.3,18.8,3.5,18.8,2.3"/>
<path class="st0" d="M23,4.2V1.4h0.7v0.4c0.2-0.3,0.5-0.5,0.9-0.5V2c-0.1,0-0.1,0-0.2,0c-0.2,0-0.6,0.1-0.7,0.3v1.9H23z"/>
<path class="st0" d="M24.9,2.8c0-0.8,0.6-1.5,1.5-1.5c0.8,0,1.4,0.6,1.4,1.6V3h-2.1c0,0.4,0.3,0.7,0.8,0.7c0.2,0,0.6-0.1,0.8-0.3
	l0.3,0.5c-0.3,0.3-0.7,0.4-1.2,0.4C25.5,4.3,24.9,3.7,24.9,2.8 M26.3,1.9c-0.5,0-0.7,0.3-0.7,0.6H27C27,2.3,26.8,1.9,26.3,1.9"/>
<path class="st0" d="M30,4.2V3.9c-0.2,0.2-0.5,0.4-0.9,0.4c-0.4,0-1-0.3-1-0.9c0-0.7,0.5-0.9,1-0.9c0.4,0,0.7,0.1,0.9,0.3V2.4
	c0-0.3-0.2-0.5-0.6-0.5c-0.3,0-0.6,0.1-0.8,0.3l-0.3-0.5c0.3-0.3,0.8-0.4,1.2-0.4c0.6,0,1.2,0.3,1.2,1.1v1.8H30z M30,3.5V3.2
	c-0.1-0.2-0.4-0.2-0.6-0.2c-0.3,0-0.5,0.2-0.5,0.4c0,0.3,0.2,0.4,0.5,0.4C29.6,3.8,29.9,3.7,30,3.5"/>
<path class="st0" d="M33.4,4.2V3.8c-0.2,0.3-0.5,0.4-0.9,0.4c-0.7,0-1.3-0.5-1.3-1.5c0-0.9,0.5-1.5,1.3-1.5c0.3,0,0.6,0.1,0.9,0.4
	V0.3h0.7v3.9H33.4z M33.4,3.3v-1C33.3,2.1,33,2,32.8,2c-0.4,0-0.7,0.3-0.7,0.8c0,0.5,0.3,0.8,0.7,0.8C33,3.6,33.3,3.5,33.4,3.3"/>
<path class="st0" d="M34.7,2.8c0-0.8,0.6-1.5,1.5-1.5c0.9,0,1.5,0.7,1.5,1.5c0,0.8-0.6,1.5-1.5,1.5C35.3,4.3,34.7,3.6,34.7,2.8
	 M36.9,2.8c0-0.4-0.3-0.8-0.7-0.8c-0.5,0-0.7,0.4-0.7,0.8c0,0.4,0.3,0.8,0.7,0.8C36.7,3.6,36.9,3.2,36.9,2.8"/>
<path class="st0" d="M40.5,3.8v1.4h-0.7V1.4h0.7v0.4c0.2-0.3,0.5-0.4,0.9-0.4c0.7,0,1.3,0.5,1.3,1.5c0,0.9-0.5,1.5-1.3,1.5
	C41,4.3,40.7,4.1,40.5,3.8 M41.8,2.8c0-0.5-0.3-0.8-0.7-0.8c-0.2,0-0.5,0.1-0.6,0.3v1c0.1,0.2,0.4,0.3,0.6,0.3
	C41.6,3.6,41.8,3.3,41.8,2.8"/>
<path class="st0" d="M43,2.8c0-0.8,0.6-1.5,1.5-1.5C45.4,1.3,46,2,46,2.8c0,0.8-0.6,1.5-1.5,1.5C43.5,4.3,43,3.6,43,2.8 M45.2,2.8
	c0-0.4-0.3-0.8-0.7-0.8c-0.5,0-0.7,0.4-0.7,0.8c0,0.4,0.3,0.8,0.7,0.8C44.9,3.6,45.2,3.2,45.2,2.8"/>
<path class="st0" d="M46.5,4.2V1.4h0.7v0.4c0.2-0.3,0.5-0.5,0.9-0.5V2C48.1,2,48,2,48,2c-0.2,0-0.6,0.1-0.7,0.3v1.9H46.5z"/>
</svg>
